<?xml version="1.0" encoding="UTF-8" standalone="no"?>
<!-- Created with Inkscape (http://www.inkscape.org/) -->

<svg
   width="6.0237432mm"
   height="4.2941132mm"
   viewBox="0 0 6.0237432 4.2941132"
   version="1.1"
   id="svg5"
   xml:space="preserve"
   inkscape:version="1.2.1 (9c6d41e410, 2022-07-14)"
   sodipodi:docname="Paw-Connect.svg"
   xmlns:inkscape="http://www.inkscape.org/namespaces/inkscape"
   xmlns:sodipodi="http://sodipodi.sourceforge.net/DTD/sodipodi-0.dtd"
   xmlns="http://www.w3.org/2000/svg"
   xmlns:svg="http://www.w3.org/2000/svg"><sodipodi:namedview
     id="namedview7"
     pagecolor="#ffffff"
     bordercolor="#666666"
     borderopacity="1.0"
     inkscape:showpageshadow="2"
     inkscape:pageopacity="0.0"
     inkscape:pagecheckerboard="0"
     inkscape:deskcolor="#d1d1d1"
     inkscape:document-units="mm"
     showgrid="false"
     inkscape:zoom="22.627417"
     inkscape:cx="6.6512232"
     inkscape:cy="6.0104076"
     inkscape:window-width="1920"
     inkscape:window-height="1027"
     inkscape:window-x="-8"
     inkscape:window-y="-8"
     inkscape:window-maximized="1"
     inkscape:current-layer="svg5"><inkscape:page
       x="0"
       y="0"
       width="6.0237432"
       height="4.2941132"
       id="page95" /><inkscape:page
       x="127.87006"
       y="-14.823306"
       width="297.01062"
       height="210.01569"
       id="page97" /></sodipodi:namedview><defs
     id="defs2"><inkscape:path-effect
       effect="mirror_symmetry"
       start_point="3.3610351,2.1606981"
       end_point="3.3610351,2.8442709"
       center_point="3.3610351,2.5024845"
       id="path-effect1598"
       is_visible="true"
       lpeversion="1.2"
       lpesatellites=""
       mode="X"
       discard_orig_path="false"
       fuse_paths="true"
       oposite_fuse="false"
       split_items="false"
       split_open="false"
       link_styles="false" /><inkscape:path-effect
       effect="mirror_symmetry"
       start_point="3.3258393,1.622546"
       end_point="3.3258393,2.6047615"
       center_point="3.3258393,2.1136538"
       id="path-effect1543"
       is_visible="true"
       lpeversion="1.2"
       lpesatellites=""
       mode="free"
       discard_orig_path="false"
       fuse_paths="true"
       oposite_fuse="false"
       split_items="false"
       split_open="false"
       link_styles="false" /><inkscape:path-effect
       effect="mirror_symmetry"
       start_point="3.3600321,1.3972595"
       end_point="3.3600321,3.4871864"
       center_point="3.3641662,2.442223"
       id="path-effect1539"
       is_visible="true"
       lpeversion="1.2"
       lpesatellites=""
       mode="X"
       discard_orig_path="false"
       fuse_paths="false"
       oposite_fuse="false"
       split_items="false"
       split_open="false"
       link_styles="false" /><inkscape:path-effect
       effect="mirror_symmetry"
       start_point="57.026568,87.644736"
       end_point="55.477992,89.064784"
       center_point="56.25228,88.35476"
       id="path-effect12173"
       is_visible="true"
       lpeversion="1.2"
       lpesatellites=""
       mode="free"
       discard_orig_path="false"
       fuse_paths="false"
       oposite_fuse="false"
       split_items="false"
       split_open="false"
       link_styles="false" /><inkscape:path-effect
       effect="mirror_symmetry"
       start_point="93.009225,42.706262"
       end_point="92.258485,45.438876"
       center_point="92.633855,44.072569"
       id="path-effect12171"
       is_visible="true"
       lpeversion="1.2"
       lpesatellites=""
       mode="free"
       discard_orig_path="false"
       fuse_paths="false"
       oposite_fuse="false"
       split_items="false"
       split_open="false"
       link_styles="false" /><inkscape:path-effect
       effect="mirror_symmetry"
       start_point="97.920444,13.75043"
       end_point="97.920444,15.485584"
       center_point="97.920444,14.618007"
       id="path-effect12169"
       is_visible="true"
       lpeversion="1.2"
       lpesatellites=""
       mode="free"
       discard_orig_path="false"
       fuse_paths="true"
       oposite_fuse="false"
       split_items="false"
       split_open="false"
       link_styles="false" /><inkscape:path-effect
       effect="mirror_symmetry"
       start_point="96.172252,14.15017"
       end_point="96.242906,15.016978"
       center_point="96.207579,14.583574"
       id="path-effect12119"
       is_visible="true"
       lpeversion="1.2"
       lpesatellites=""
       mode="free"
       discard_orig_path="false"
       fuse_paths="false"
       oposite_fuse="false"
       split_items="false"
       split_open="false"
       link_styles="false" /></defs><g
     id="g3088"
     transform="rotate(152.51695,53.914281,-2.0496921)"
     style="opacity:1;fill:none;fill-opacity:0.601036;stroke:#000000;stroke-width:0.002;stroke-dasharray:none;stroke-opacity:1"><g
       id="g23"
       transform="matrix(0.26458333,0,0,0.26458334,100.99021,17.396625)"
       style="fill:none;fill-opacity:0.601036;stroke:#000000;stroke-width:0.00755906;stroke-dasharray:none;stroke-opacity:1"><path
         d="m 0,0 c 0,0.8 -0.64,1.44 -1.44,1.44 -0.96,0 -1.6,-0.64 -1.6,-1.44 0,-0.96 0.64,-1.6 1.6,-1.6 0.8,0 1.44,0.64 1.44,1.6 z"
         style="fill:none;fill-opacity:0.601036;fill-rule:nonzero;stroke:#000000;stroke-width:0.00755906;stroke-dasharray:none;stroke-opacity:1"
         id="path25" /></g><g
       id="g27"
       transform="matrix(0.26458333,0,0,0.26458334,100.99021,18.666625)"
       style="fill:none;fill-opacity:0.601036;stroke:#000000;stroke-width:0.00755906;stroke-dasharray:none;stroke-opacity:1"><path
         d="m 0,0 c 0,0.8 -0.64,1.44 -1.44,1.44 -0.96,0 -1.6,-0.64 -1.6,-1.44 0,-0.96 0.64,-1.6 1.6,-1.6 0.8,0 1.44,0.64 1.44,1.6 z"
         style="fill:none;fill-opacity:0.601036;fill-rule:nonzero;stroke:#000000;stroke-width:0.00755906;stroke-dasharray:none;stroke-opacity:1"
         id="path29" /></g><g
       id="g31"
       transform="matrix(0.26458333,0,0,0.26458334,99.720212,17.396625)"
       style="fill:none;fill-opacity:0.601036;stroke:#000000;stroke-width:0.00755906;stroke-dasharray:none;stroke-opacity:1"><path
         d="m 0,0 c 0,0.8 -0.64,1.44 -1.44,1.44 -0.96,0 -1.6,-0.64 -1.6,-1.44 0,-0.96 0.64,-1.6 1.6,-1.6 0.8,0 1.44,0.64 1.44,1.6 z"
         style="fill:none;fill-opacity:0.601036;fill-rule:nonzero;stroke:#000000;stroke-width:0.00755906;stroke-dasharray:none;stroke-opacity:1"
         id="path33" /></g><g
       id="g35"
       transform="matrix(0.26458333,0,0,0.26458334,99.720212,18.666625)"
       style="fill:none;fill-opacity:0.601036;stroke:#000000;stroke-width:0.00755906;stroke-dasharray:none;stroke-opacity:1"><path
         d="m 0,0 c 0,0.8 -0.64,1.44 -1.44,1.44 -0.96,0 -1.6,-0.64 -1.6,-1.44 0,-0.96 0.64,-1.6 1.6,-1.6 0.8,0 1.44,0.64 1.44,1.6 z"
         style="fill:none;fill-opacity:0.601036;fill-rule:nonzero;stroke:#000000;stroke-width:0.00755906;stroke-dasharray:none;stroke-opacity:1"
         id="path37" /></g><g
       id="g39"
       transform="matrix(0.26458333,0,0,0.26458334,98.577212,18.031625)"
       style="fill:none;fill-opacity:0.601036;stroke:#000000;stroke-width:0.00755906;stroke-dasharray:none;stroke-opacity:1"><path
         d="M 0,0 C 0,0.96 -0.96,1.92 -1.92,1.92 -3.04,1.92 -4,0.96 -4,0 -4,-1.12 -3.04,-2.08 -1.92,-2.08 -0.96,-2.08 0,-1.12 0,0 Z"
         style="fill:none;fill-opacity:0.601036;fill-rule:nonzero;stroke:#000000;stroke-width:0.00755906;stroke-dasharray:none;stroke-opacity:1"
         id="path41" /></g><g
       id="g43"
       transform="matrix(0.26458333,0,0,0.26458334,102.26023,17.396625)"
       style="fill:none;fill-opacity:0.601036;stroke:#000000;stroke-width:0.00755906;stroke-dasharray:none;stroke-opacity:1"><path
         d="m 0,0 c 0,0.8 -0.64,1.44 -1.44,1.44 -0.96,0 -1.6,-0.64 -1.6,-1.44 0,-0.96 0.64,-1.6 1.6,-1.6 0.8,0 1.44,0.64 1.44,1.6 z"
         style="fill:none;fill-opacity:0.601036;fill-rule:nonzero;stroke:#000000;stroke-width:0.00755906;stroke-dasharray:none;stroke-opacity:1"
         id="path45" /></g><g
       id="g47"
       transform="matrix(0.26458333,0,0,0.26458334,102.26023,18.666625)"
       style="fill:none;fill-opacity:0.601036;stroke:#000000;stroke-width:0.00755906;stroke-dasharray:none;stroke-opacity:1"><path
         d="m 0,0 c 0,0.8 -0.64,1.44 -1.44,1.44 -0.96,0 -1.6,-0.64 -1.6,-1.44 0,-0.96 0.64,-1.6 1.6,-1.6 0.8,0 1.44,0.64 1.44,1.6 z"
         style="fill:none;fill-opacity:0.601036;fill-rule:nonzero;stroke:#000000;stroke-width:0.00755906;stroke-dasharray:none;stroke-opacity:1"
         id="path49" /></g><g
       id="g51"
       transform="matrix(0.26458333,0,0,0.26458334,103.65722,17.015625)"
       style="fill:none;fill-opacity:0.601036;stroke:#000000;stroke-width:0.00755906;stroke-dasharray:none;stroke-opacity:1"><path
         d="M 0,0 C 0,0.96 -0.96,1.92 -1.92,1.92 -3.04,1.92 -4,0.96 -4,0 -4,-1.12 -3.04,-2.08 -1.92,-2.08 -0.96,-2.08 0,-1.12 0,0 Z"
         style="fill:none;fill-opacity:0.601036;fill-rule:nonzero;stroke:#000000;stroke-width:0.00755906;stroke-dasharray:none;stroke-opacity:1"
         id="path53" /></g><g
       id="g55"
       transform="matrix(0.26458333,0,0,0.26458334,103.65722,19.047625)"
       style="fill:none;fill-opacity:0.601036;stroke:#000000;stroke-width:0.00755906;stroke-dasharray:none;stroke-opacity:1"><path
         d="M 0,0 C 0,0.96 -0.96,1.92 -1.92,1.92 -3.04,1.92 -4,0.96 -4,0 -4,-1.12 -3.04,-2.08 -1.92,-2.08 -0.96,-2.08 0,-1.12 0,0 Z"
         style="fill:none;fill-opacity:0.601036;fill-rule:nonzero;stroke:#000000;stroke-width:0.00755906;stroke-dasharray:none;stroke-opacity:1"
         id="path57" /></g><g
       id="g59"
       transform="matrix(0.26458333,0,0,0.26458334,102.26023,17.396625)"
       style="fill:none;fill-opacity:0.601036;stroke:#000000;stroke-width:0.00755906;stroke-dasharray:none;stroke-opacity:1"><path
         d="m 0,0 c 0,0.8 -0.64,1.44 -1.44,1.44 -0.96,0 -1.6,-0.64 -1.6,-1.44 0,-0.96 0.64,-1.6 1.6,-1.6 0.8,0 1.44,0.64 1.44,1.6 z"
         style="fill:none;fill-opacity:0.601036;fill-rule:nonzero;stroke:#000000;stroke-width:0.00755906;stroke-dasharray:none;stroke-opacity:1"
         id="path61" /></g><g
       id="g63"
       transform="matrix(0.26458333,0,0,0.26458334,102.26023,18.666625)"
       style="fill:none;fill-opacity:0.601036;stroke:#000000;stroke-width:0.00755906;stroke-dasharray:none;stroke-opacity:1"><path
         d="m 0,0 c 0,0.8 -0.64,1.44 -1.44,1.44 -0.96,0 -1.6,-0.64 -1.6,-1.44 0,-0.96 0.64,-1.6 1.6,-1.6 0.8,0 1.44,0.64 1.44,1.6 z"
         style="fill:none;fill-opacity:0.601036;fill-rule:nonzero;stroke:#000000;stroke-width:0.00755906;stroke-dasharray:none;stroke-opacity:1"
         id="path65" /></g><g
       id="g67"
       transform="matrix(0.26458333,0,0,0.26458334,100.99021,17.396625)"
       style="fill:none;fill-opacity:0.601036;stroke:#000000;stroke-width:0.00755906;stroke-dasharray:none;stroke-opacity:1"><path
         d="m 0,0 c 0,0.8 -0.64,1.44 -1.44,1.44 -0.96,0 -1.6,-0.64 -1.6,-1.44 0,-0.96 0.64,-1.6 1.6,-1.6 0.8,0 1.44,0.64 1.44,1.6 z"
         style="fill:none;fill-opacity:0.601036;fill-rule:nonzero;stroke:#000000;stroke-width:0.00755906;stroke-dasharray:none;stroke-opacity:1"
         id="path69" /></g><g
       id="g71"
       transform="matrix(0.26458333,0,0,0.26458334,100.99021,18.666625)"
       style="fill:none;fill-opacity:0.601036;stroke:#000000;stroke-width:0.00755906;stroke-dasharray:none;stroke-opacity:1"><path
         d="m 0,0 c 0,0.8 -0.64,1.44 -1.44,1.44 -0.96,0 -1.6,-0.64 -1.6,-1.44 0,-0.96 0.64,-1.6 1.6,-1.6 0.8,0 1.44,0.64 1.44,1.6 z"
         style="fill:none;fill-opacity:0.601036;fill-rule:nonzero;stroke:#000000;stroke-width:0.00755906;stroke-dasharray:none;stroke-opacity:1"
         id="path73" /></g><g
       id="g75"
       transform="matrix(0.26458333,0,0,0.26458334,99.720212,17.396625)"
       style="fill:none;fill-opacity:0.601036;stroke:#000000;stroke-width:0.00755906;stroke-dasharray:none;stroke-opacity:1"><path
         d="m 0,0 c 0,0.8 -0.64,1.44 -1.44,1.44 -0.96,0 -1.6,-0.64 -1.6,-1.44 0,-0.96 0.64,-1.6 1.6,-1.6 0.8,0 1.44,0.64 1.44,1.6 z"
         style="fill:none;fill-opacity:0.601036;fill-rule:nonzero;stroke:#000000;stroke-width:0.00755906;stroke-dasharray:none;stroke-opacity:1"
         id="path77" /></g><g
       id="g79"
       transform="matrix(0.26458333,0,0,0.26458334,99.720212,18.666625)"
       style="fill:none;fill-opacity:0.601036;stroke:#000000;stroke-width:0.00755906;stroke-dasharray:none;stroke-opacity:1"><path
         d="m 0,0 c 0,0.8 -0.64,1.44 -1.44,1.44 -0.96,0 -1.6,-0.64 -1.6,-1.44 0,-0.96 0.64,-1.6 1.6,-1.6 0.8,0 1.44,0.64 1.44,1.6 z"
         style="fill:none;fill-opacity:0.601036;fill-rule:nonzero;stroke:#000000;stroke-width:0.00755906;stroke-dasharray:none;stroke-opacity:1"
         id="path81" /></g><g
       id="g83"
       transform="matrix(0.26458333,0,0,0.26458334,98.577212,18.031625)"
       style="fill:none;fill-opacity:0.601036;stroke:#000000;stroke-width:0.00755906;stroke-dasharray:none;stroke-opacity:1"><path
         d="M 0,0 C 0,0.96 -0.96,1.92 -1.92,1.92 -3.04,1.92 -4,0.96 -4,0 -4,-1.12 -3.04,-2.08 -1.92,-2.08 -0.96,-2.08 0,-1.12 0,0 Z"
         style="fill:none;fill-opacity:0.601036;fill-rule:nonzero;stroke:#000000;stroke-width:0.00755906;stroke-dasharray:none;stroke-opacity:1"
         id="path85" /></g><g
       id="g87"
       transform="matrix(0.26458333,0,0,0.26458334,103.65722,17.015625)"
       style="fill:none;fill-opacity:0.601036;stroke:#000000;stroke-width:0.00755906;stroke-dasharray:none;stroke-opacity:1"><path
         d="M 0,0 C 0,0.96 -0.96,1.92 -1.92,1.92 -3.04,1.92 -4,0.96 -4,0 -4,-1.12 -3.04,-2.08 -1.92,-2.08 -0.96,-2.08 0,-1.12 0,0 Z"
         style="fill:none;fill-opacity:0.601036;fill-rule:nonzero;stroke:#000000;stroke-width:0.00755906;stroke-dasharray:none;stroke-opacity:1"
         id="path89" /></g><g
       id="g91"
       transform="matrix(0.26458333,0,0,0.26458334,103.65722,19.047625)"
       style="fill:none;fill-opacity:0.601036;stroke:#000000;stroke-width:0.00755906;stroke-dasharray:none;stroke-opacity:1"><path
         d="M 0,0 C 0,0.96 -0.96,1.92 -1.92,1.92 -3.04,1.92 -4,0.96 -4,0 -4,-1.12 -3.04,-2.08 -1.92,-2.08 -0.96,-2.08 0,-1.12 0,0 Z"
         style="fill:none;fill-opacity:0.601036;fill-rule:nonzero;stroke:#000000;stroke-width:0.00755906;stroke-dasharray:none;stroke-opacity:1"
         id="path93" /></g></g><g
     inkscape:label="Layer 1"
     inkscape:groupmode="layer"
     id="layer1"
     transform="translate(-92.129934,-14.823306)" /><path
     style="fill:#000000;fill-opacity:0.601036;stroke:none;stroke-width:0;stroke-dasharray:none;paint-order:stroke fill markers"
     id="path1078"
     transform="matrix(0.72856059,-0.2057224,0.198808,0.78188858,-72.908358,-12.888855)"
     d="m 93.085237,41.839504 c 0,0.54695 -0.292031,0.990341 -0.652269,0.990341 -0.360238,0 -0.652269,-0.443391 -0.652269,-0.990341 0,-0.54695 0.292031,-0.99034 0.652269,-0.99034 0.360238,0 0.652269,0.44339 0.652269,0.99034 z m 0.301475,0.08282 c -0.279439,0.470179 -0.254928,1.000534 0.05475,1.184581 0.309675,0.184048 0.787245,-0.04791 1.066684,-0.518086 0.27944,-0.470179 0.254929,-1.000534 -0.05475,-1.184581 -0.309675,-0.184048 -0.787246,0.04791 -1.066685,0.518086 z"
     sodipodi:type="arc"
     sodipodi:ry="0.99034035"
     sodipodi:rx="0.65226918"
     sodipodi:cy="41.839504"
     sodipodi:cx="92.432968"
     inkscape:path-effect="#path-effect12171"
     class="UnoptimicedTransforms" /><path
     style="opacity:1;fill:#000000;fill-opacity:0.601036;stroke:none;stroke-width:0;stroke-dasharray:none;paint-order:stroke fill markers"
     id="path1078-1-7-1"
     transform="matrix(0.4999764,-0.60629256,0.54461622,0.55998235,-72.908358,-12.888855)"
     inkscape:path-effect="#path-effect12173"
     sodipodi:type="arc"
     sodipodi:cx="55.680202"
     sodipodi:cy="86.118347"
     sodipodi:rx="0.56071883"
     sodipodi:ry="0.78170288"
     d="m 56.240921,86.118347 c 0,0.431723 -0.251042,0.781703 -0.560719,0.781703 -0.309676,0 -0.560718,-0.34998 -0.560718,-0.781703 0,-0.431722 0.251042,-0.781703 0.560718,-0.781703 0.309677,0 0.560719,0.349981 0.560719,0.781703 z m 2.238421,2.44102 c -0.430107,-0.03731 -0.800475,0.182541 -0.82724,0.491059 -0.02676,0.308518 0.300209,0.588869 0.730316,0.626182 0.430107,0.03731 0.800475,-0.182541 0.82724,-0.491059 0.02677,-0.308517 -0.300208,-0.588869 -0.730316,-0.626182 z"
     class="UnoptimicedTransforms" /><path
     id="path9117-0"
     style="fill:#000000;fill-opacity:0.601036;stroke:none;stroke-width:0.264583px;stroke-linecap:butt;stroke-linejoin:miter;stroke-opacity:1"
     d="M 97.920316 13.750338 C 97.540724 13.749247 97.203609 13.924041 96.946472 14.167137 C 97.116091 14.294676 97.246013 14.467571 97.393611 14.60428 C 97.54597 14.745399 97.707144 14.847765 97.948892 14.848934 C 98.190641 14.847765 98.351255 14.745399 98.503613 14.60428 C 98.642053 14.476054 98.765242 14.316285 98.919934 14.191654 C 98.659825 13.936014 98.312421 13.749211 97.920316 13.750338 z M 96.837209 14.279813 C 96.465142 14.697505 96.312882 15.249248 96.535754 15.494216 C 96.918567 15.914929 97.255407 15.504337 97.899024 15.494737 L 97.942169 15.494737 C 98.585785 15.504337 98.922065 15.914929 99.304877 15.494216 C 99.523127 15.254329 99.381754 14.720184 99.026396 14.305896 C 98.892645 14.41441 98.769129 14.570642 98.61792 14.710697 C 98.451688 14.864665 98.241782 14.999318 97.948892 15.000734 C 97.656003 14.999318 97.445537 14.864665 97.279305 14.710697 C 97.115506 14.558982 96.984169 14.388264 96.837209 14.279813 z "
     transform="matrix(0.92225932,0,0,0.99063318,-86.972727,-11.942057)" /></svg>
