<?xml version="1.0" encoding="UTF-8" standalone="no"?>
<!-- Created with Inkscape (http://www.inkscape.org/) -->

<svg
   width="6.0237432mm"
   height="4.2941132mm"
   viewBox="0 0 6.0237432 4.2941132"
   version="1.1"
   id="svg5"
   xml:space="preserve"
   inkscape:version="1.2.1 (9c6d41e410, 2022-07-14)"
   sodipodi:docname="Paw-Connect_RevB.svg"
   xmlns:inkscape="http://www.inkscape.org/namespaces/inkscape"
   xmlns:sodipodi="http://sodipodi.sourceforge.net/DTD/sodipodi-0.dtd"
   xmlns="http://www.w3.org/2000/svg"
   xmlns:svg="http://www.w3.org/2000/svg"><sodipodi:namedview
     id="namedview7"
     pagecolor="#ffffff"
     bordercolor="#666666"
     borderopacity="1.0"
     inkscape:showpageshadow="2"
     inkscape:pageopacity="0.0"
     inkscape:pagecheckerboard="0"
     inkscape:deskcolor="#d1d1d1"
     inkscape:document-units="mm"
     showgrid="false"
     inkscape:zoom="32"
     inkscape:cx="7.703125"
     inkscape:cy="8.40625"
     inkscape:window-width="1920"
     inkscape:window-height="1027"
     inkscape:window-x="-8"
     inkscape:window-y="-8"
     inkscape:window-maximized="1"
     inkscape:current-layer="svg5"><inkscape:page
       x="0"
       y="0"
       width="6.0237432"
       height="4.2941132"
       id="page95" /><inkscape:page
       x="127.87006"
       y="-14.823306"
       width="297.01062"
       height="210.01569"
       id="page97" /></sodipodi:namedview><defs
     id="defs2"><inkscape:path-effect
       effect="fillet_chamfer"
       id="path-effect22678"
       nodesatellites_param="F,0,0,1,0,0.15875,0,1 @ F,0,0,1,0,0.15875,0,1 @ F,0,0,1,0,0.15875,0,1 @ F,0,0,1,0,0.15875,0,1 @ F,0,0,1,0,0.15875,0,1 @ F,0,0,1,0,0.15875,0,1 @ F,0,0,1,0,0.15875,0,1"
       is_visible="true"
       lpeversion="1"
       unit="px"
       method="auto"
       mode="F"
       radius="0.6"
       chamfer_steps="1"
       flexible="false"
       use_knot_distance="true"
       apply_no_radius="true"
       apply_with_radius="true"
       only_selected="false"
       hide_knots="false" /><inkscape:path-effect
       effect="fillet_chamfer"
       id="path-effect22676"
       is_visible="true"
       lpeversion="1"
       nodesatellites_param="F,0,0,1,0,0,0,1 @ F,0,0,1,0,0,0,1 @ F,0,0,1,0,0,0,1 @ F,0,0,1,0,0,0,1 @ F,0,0,1,0,0,0,1 @ F,0,0,1,0,0,0,1 @ F,0,0,1,0,0,0,1"
       unit="px"
       method="auto"
       mode="F"
       radius="0"
       chamfer_steps="1"
       flexible="false"
       use_knot_distance="true"
       apply_no_radius="true"
       apply_with_radius="true"
       only_selected="false"
       hide_knots="false" /><inkscape:path-effect
       effect="fillet_chamfer"
       id="path-effect22672"
       is_visible="true"
       lpeversion="1"
       nodesatellites_param="F,0,0,1,0,0.15875,0,1 @ F,0,0,1,0,0.15875,0,1 @ F,0,0,1,0,0.15875,0,1 @ F,0,0,1,0,0.15875,0,1 @ F,0,0,1,0,0.15875,0,1 @ F,0,0,1,0,0.15875,0,1"
       unit="px"
       method="auto"
       mode="F"
       radius="0.6"
       chamfer_steps="1"
       flexible="false"
       use_knot_distance="true"
       apply_no_radius="true"
       apply_with_radius="true"
       only_selected="false"
       hide_knots="false" /><inkscape:path-effect
       effect="mirror_symmetry"
       start_point="97.916696,14.80886"
       end_point="97.921696,16.184874"
       center_point="97.919196,15.496867"
       id="path-effect22663"
       is_visible="true"
       lpeversion="1.2"
       lpesatellites="#path22669"
       mode="free"
       discard_orig_path="false"
       fuse_paths="false"
       oposite_fuse="false"
       split_items="true"
       split_open="false"
       link_styles="false" /><inkscape:path-effect
       effect="mirror_symmetry"
       start_point="3.335,2.1402659"
       end_point="3.33,3.6062206"
       center_point="3.3352121,2.8732433"
       id="path-effect21818"
       is_visible="true"
       lpeversion="1.2"
       lpesatellites=""
       mode="X"
       discard_orig_path="false"
       fuse_paths="false"
       oposite_fuse="false"
       split_items="false"
       split_open="false"
       link_styles="false" /><inkscape:path-effect
       effect="mirror_symmetry"
       start_point="3.335,2.1402659"
       end_point="3.33,3.6062206"
       center_point="3.3352121,2.8732433"
       id="path-effect21812"
       is_visible="true"
       lpeversion="1.2"
       lpesatellites=""
       mode="X"
       discard_orig_path="false"
       fuse_paths="false"
       oposite_fuse="false"
       split_items="false"
       split_open="false"
       link_styles="false" /><inkscape:path-effect
       effect="mirror_symmetry"
       start_point="3.335,2.1402659"
       end_point="3.33,3.6062206"
       center_point="3.3352121,2.8732433"
       id="path-effect21790"
       is_visible="true"
       lpeversion="1.2"
       lpesatellites=""
       mode="X"
       discard_orig_path="false"
       fuse_paths="false"
       oposite_fuse="false"
       split_items="false"
       split_open="false"
       link_styles="false" /><inkscape:path-effect
       effect="mirror_symmetry"
       start_point="3.335,2.1402659"
       end_point="3.33,3.6062206"
       center_point="3.3352121,2.8732433"
       id="path-effect21784"
       is_visible="true"
       lpeversion="1.2"
       lpesatellites=""
       mode="X"
       discard_orig_path="false"
       fuse_paths="false"
       oposite_fuse="false"
       split_items="false"
       split_open="false"
       link_styles="false" /><inkscape:path-effect
       effect="mirror_symmetry"
       start_point="3.335,2.1402659"
       end_point="3.33,3.6062206"
       center_point="3.3352121,2.8732433"
       id="path-effect19294"
       is_visible="true"
       lpeversion="1.2"
       lpesatellites=""
       mode="X"
       discard_orig_path="false"
       fuse_paths="false"
       oposite_fuse="false"
       split_items="false"
       split_open="false"
       link_styles="false" /><inkscape:path-effect
       effect="mirror_symmetry"
       start_point="3.3610351,2.1606981"
       end_point="3.3610351,2.8442709"
       center_point="3.3610351,2.5024845"
       id="path-effect1598"
       is_visible="true"
       lpeversion="1.2"
       lpesatellites=""
       mode="X"
       discard_orig_path="false"
       fuse_paths="true"
       oposite_fuse="false"
       split_items="false"
       split_open="false"
       link_styles="false" /><inkscape:path-effect
       effect="mirror_symmetry"
       start_point="3.3258393,1.622546"
       end_point="3.3258393,2.6047615"
       center_point="3.3258393,2.1136538"
       id="path-effect1543"
       is_visible="true"
       lpeversion="1.2"
       lpesatellites=""
       mode="free"
       discard_orig_path="false"
       fuse_paths="true"
       oposite_fuse="false"
       split_items="false"
       split_open="false"
       link_styles="false" /><inkscape:path-effect
       effect="mirror_symmetry"
       start_point="3.3600321,1.3972595"
       end_point="3.3600321,3.4871864"
       center_point="3.3641662,2.442223"
       id="path-effect1539"
       is_visible="true"
       lpeversion="1.2"
       lpesatellites=""
       mode="X"
       discard_orig_path="false"
       fuse_paths="false"
       oposite_fuse="false"
       split_items="false"
       split_open="false"
       link_styles="false" /><inkscape:path-effect
       effect="mirror_symmetry"
       start_point="57.026568,87.644736"
       end_point="55.477992,89.064784"
       center_point="56.25228,88.35476"
       id="path-effect12173"
       is_visible="true"
       lpeversion="1.2"
       lpesatellites=""
       mode="free"
       discard_orig_path="false"
       fuse_paths="false"
       oposite_fuse="false"
       split_items="false"
       split_open="false"
       link_styles="false" /><inkscape:path-effect
       effect="mirror_symmetry"
       start_point="93.009225,42.706262"
       end_point="92.258485,45.438876"
       center_point="92.633855,44.072569"
       id="path-effect12171"
       is_visible="true"
       lpeversion="1.2"
       lpesatellites=""
       mode="free"
       discard_orig_path="false"
       fuse_paths="false"
       oposite_fuse="false"
       split_items="false"
       split_open="false"
       link_styles="false" /><inkscape:path-effect
       effect="mirror_symmetry"
       start_point="97.920444,13.75043"
       end_point="97.920444,15.485584"
       center_point="97.920444,14.618007"
       id="path-effect12169"
       is_visible="true"
       lpeversion="1.2"
       lpesatellites=""
       mode="free"
       discard_orig_path="false"
       fuse_paths="true"
       oposite_fuse="false"
       split_items="false"
       split_open="false"
       link_styles="false" /><inkscape:path-effect
       effect="mirror_symmetry"
       start_point="96.172252,14.15017"
       end_point="96.242906,15.016978"
       center_point="96.207579,14.583574"
       id="path-effect12119"
       is_visible="true"
       lpeversion="1.2"
       lpesatellites=""
       mode="free"
       discard_orig_path="false"
       fuse_paths="false"
       oposite_fuse="false"
       split_items="false"
       split_open="false"
       link_styles="false" /></defs><g
     id="g3088"
     transform="rotate(152.51695,53.914281,-2.0496921)"
     style="opacity:1;fill:none;fill-opacity:0.601036;stroke:#000000;stroke-width:0.002;stroke-dasharray:none;stroke-opacity:1"
     inkscape:label="Tag-Connect"><g
       id="g79"
       transform="matrix(0.26458333,0,0,0.26458334,99.720212,18.666625)"
       style="display:none;fill:none;fill-opacity:0.601036;stroke:#000000;stroke-width:0.00755906;stroke-dasharray:none;stroke-opacity:1"
       inkscape:label="Pads"><path
         d="m 0,0 c 0,0.8 -0.64,1.44 -1.44,1.44 -0.96,0 -1.6,-0.64 -1.6,-1.44 0,-0.96 0.64,-1.6 1.6,-1.6 0.8,0 1.44,0.64 1.44,1.6 z"
         style="fill:none;fill-opacity:0.601036;fill-rule:nonzero;stroke:#000000;stroke-width:0.00755906;stroke-dasharray:none;stroke-opacity:1"
         id="path81" /><path
         d="m 0,0 c 0,0.8 -0.64,1.44 -1.44,1.44 -0.96,0 -1.6,-0.64 -1.6,-1.44 0,-0.96 0.64,-1.6 1.6,-1.6 0.8,0 1.44,0.64 1.44,1.6 z"
         style="opacity:1;fill:none;fill-opacity:0.601036;fill-rule:nonzero;stroke:#000000;stroke-width:0.00755906;stroke-dasharray:none;stroke-opacity:1"
         id="path77"
         transform="translate(-2.6728936e-8,-4.7999997)" /><path
         d="m 0,0 c 0,0.8 -0.64,1.44 -1.44,1.44 -0.96,0 -1.6,-0.64 -1.6,-1.44 0,-0.96 0.64,-1.6 1.6,-1.6 0.8,0 1.44,0.64 1.44,1.6 z"
         style="opacity:1;fill:none;fill-opacity:0.601036;fill-rule:nonzero;stroke:#000000;stroke-width:0.00755906;stroke-dasharray:none;stroke-opacity:1"
         id="path73"
         transform="translate(4.7999924)" /><path
         d="m 0,0 c 0,0.8 -0.64,1.44 -1.44,1.44 -0.96,0 -1.6,-0.64 -1.6,-1.44 0,-0.96 0.64,-1.6 1.6,-1.6 0.8,0 1.44,0.64 1.44,1.6 z"
         style="opacity:1;fill:none;fill-opacity:0.601036;fill-rule:nonzero;stroke:#000000;stroke-width:0.00755906;stroke-dasharray:none;stroke-opacity:1"
         id="path69"
         transform="translate(4.7999924,-4.7999998)" /><path
         d="m 0,0 c 0,0.8 -0.64,1.44 -1.44,1.44 -0.96,0 -1.6,-0.64 -1.6,-1.44 0,-0.96 0.64,-1.6 1.6,-1.6 0.8,0 1.44,0.64 1.44,1.6 z"
         style="opacity:1;fill:none;fill-opacity:0.601036;fill-rule:nonzero;stroke:#000000;stroke-width:0.00755906;stroke-dasharray:none;stroke-opacity:1"
         id="path65"
         inkscape:label="path65"
         transform="translate(9.6000681)" /><path
         d="m 0,0 c 0,0.8 -0.64,1.44 -1.44,1.44 -0.96,0 -1.6,-0.64 -1.6,-1.44 0,-0.96 0.64,-1.6 1.6,-1.6 0.8,0 1.44,0.64 1.44,1.6 z"
         style="opacity:1;fill:none;fill-opacity:0.601036;fill-rule:nonzero;stroke:#000000;stroke-width:0.00755906;stroke-dasharray:none;stroke-opacity:1"
         id="path61"
         transform="translate(9.6000681,-4.7999996)" /></g><g
       id="g91"
       transform="matrix(0.26458333,0,0,0.26458334,103.65722,19.047625)"
       style="fill:none;fill-opacity:0.601036;stroke:#000000;stroke-width:0.00755906;stroke-dasharray:none;stroke-opacity:1"
       inkscape:label="Holes"><path
         d="M 0,0 C 0,0.96 -0.96,1.92 -1.92,1.92 -3.04,1.92 -4,0.96 -4,0 -4,-1.12 -3.04,-2.08 -1.92,-2.08 -0.96,-2.08 0,-1.12 0,0 Z"
         style="fill:none;fill-opacity:0.601036;fill-rule:nonzero;stroke:#000000;stroke-width:0.00755906;stroke-dasharray:none;stroke-opacity:1"
         id="path93" /><path
         d="M 0,0 C 0,0.96 -0.96,1.92 -1.92,1.92 -3.04,1.92 -4,0.96 -4,0 -4,-1.12 -3.04,-2.08 -1.92,-2.08 -0.96,-2.08 0,-1.12 0,0 Z"
         style="opacity:1;fill:none;fill-opacity:0.601036;stroke:#000000;stroke-width:0.00755906;stroke-dasharray:none;stroke-opacity:1;fill-rule:nonzero"
         id="path89"
         transform="translate(-2.1017042e-8,-7.6799995)" /><path
         d="M 0,0 C 0,0.96 -0.96,1.92 -1.92,1.92 -3.04,1.92 -4,0.96 -4,0 -4,-1.12 -3.04,-2.08 -1.92,-2.08 -0.96,-2.08 0,-1.12 0,0 Z"
         style="opacity:1;fill:none;fill-opacity:0.601036;stroke:#000000;stroke-width:0.00755906;stroke-dasharray:none;stroke-opacity:1;fill-rule:nonzero"
         id="path85"
         transform="translate(-19.200031,-3.8399998)" /></g></g><g
     inkscape:label="Layer 1"
     inkscape:groupmode="layer"
     id="layer1"
     transform="translate(-92.129934,-14.823306)" /><path
     style="fill:#000000;fill-opacity:0.601036;stroke:none;stroke-width:0;stroke-dasharray:none;paint-order:stroke fill markers"
     id="path1078"
     transform="matrix(0.72856059,-0.2057224,0.198808,0.78188858,-72.908358,-12.888855)"
     d="m 93.085237,41.839504 c 0,0.54695 -0.292031,0.990341 -0.652269,0.990341 -0.360238,0 -0.652269,-0.443391 -0.652269,-0.990341 0,-0.54695 0.292031,-0.99034 0.652269,-0.99034 0.360238,0 0.652269,0.44339 0.652269,0.99034 z m 0.301475,0.08282 c -0.279439,0.470179 -0.254928,1.000534 0.05475,1.184581 0.309675,0.184048 0.787245,-0.04791 1.066684,-0.518086 0.27944,-0.470179 0.254929,-1.000534 -0.05475,-1.184581 -0.309675,-0.184048 -0.787246,0.04791 -1.066685,0.518086 z"
     sodipodi:type="arc"
     sodipodi:ry="0.99034035"
     sodipodi:rx="0.65226918"
     sodipodi:cy="41.839504"
     sodipodi:cx="92.432968"
     inkscape:path-effect="#path-effect12171"
     class="UnoptimicedTransforms"
     inkscape:label="beans_mid" /><path
     style="opacity:1;fill:#000000;fill-opacity:0.601036;stroke:none;stroke-width:0;stroke-dasharray:none;paint-order:stroke fill markers"
     id="path1078-1-7-1"
     transform="matrix(0.4999764,-0.60629256,0.54461622,0.55998235,-72.908358,-12.888855)"
     inkscape:path-effect="#path-effect12173"
     sodipodi:type="arc"
     sodipodi:cx="55.680202"
     sodipodi:cy="86.118347"
     sodipodi:rx="0.56071883"
     sodipodi:ry="0.78170288"
     d="m 56.240921,86.118347 c 0,0.431723 -0.251042,0.781703 -0.560719,0.781703 -0.309676,0 -0.560718,-0.34998 -0.560718,-0.781703 0,-0.431722 0.251042,-0.781703 0.560718,-0.781703 0.309677,0 0.560719,0.349981 0.560719,0.781703 z m 2.238421,2.44102 c -0.430107,-0.03731 -0.800475,0.182541 -0.82724,0.491059 -0.02676,0.308518 0.300209,0.588869 0.730316,0.626182 0.430107,0.03731 0.800475,-0.182541 0.82724,-0.491059 0.02677,-0.308517 -0.300208,-0.588869 -0.730316,-0.626182 z"
     class="UnoptimicedTransforms"
     inkscape:label="beans_side" /><path
     id="path21805"
     style="display:none;fill:#000000;fill-opacity:0.601036;stroke:none;stroke-width:0.264583px;stroke-linecap:butt;stroke-linejoin:miter;stroke-opacity:1"
     d="m 99.026401,14.305896 c 0.355361,0.414288 0.496731,0.948433 0.278481,1.18832 -0.382812,0.420713 -0.719092,0.01012 -1.362708,5.21e-4 h -0.04315 c -0.643617,0.0096 -0.980457,0.420192 -1.36327,-5.21e-4 -0.222872,-0.244968 -0.07061,-0.796711 0.301455,-1.214403 l 0.109263,-0.112673 c 0.257137,-0.243096 0.594252,-0.417899 0.973844,-0.416799 0.392105,-0.0011 0.739509,0.185676 0.999618,0.441316 z"
     transform="matrix(0.92225932,0,0,0.99063318,-86.972727,-11.942057)"
     sodipodi:nodetypes="cccccccccc"
     inkscape:label="pad_shape" /><path
     style="display:none;fill:none;stroke:#ffffff;stroke-width:0.15;stroke-linecap:butt;stroke-linejoin:miter;stroke-dasharray:none;stroke-opacity:1"
     d="m 2.2981268,2.1343744 c 0,0 0.142382,0.068056 0.4532736,0.376089 0.3108916,0.3080327 0.3136573,0.7366 0.3808532,1.00211 0.067196,0.26551 0.063303,0.4040858 0.063303,0.4040858 M 4.3722974,2.1343744 c 0,0 -0.142382,0.068056 -0.4532736,0.376089 -0.3108916,0.3080327 -0.3136573,0.7366 -0.3808532,1.00211 -0.067196,0.26551 -0.063303,0.4040858 -0.063303,0.4040858"
     id="path21780"
     sodipodi:nodetypes="czzc"
     inkscape:label="pad_cut_line"
     inkscape:original-d="m 2.2981268,2.1343744 c 0,0 0.142382,0.068056 0.4532736,0.376089 0.3108916,0.3080327 0.3136573,0.7366 0.3808532,1.00211 0.067196,0.26551 0.063303,0.4040858 0.063303,0.4040858"
     inkscape:path-effect="#path-effect21784"
     class="UnoptimicedTransforms" /><g
     id="g22683"
     style="display:inline;stroke-width:0;stroke-dasharray:none"
     inkscape:label="pads"><path
       style="fill:#000000;fill-opacity:0.601036;stroke:none;stroke-width:0;stroke-linecap:butt;stroke-linejoin:miter;stroke-opacity:1;stroke-dasharray:none"
       inkscape:path-effect="#path-effect22672;#path-effect22663"
       inkscape:original-d="m 99.028077,14.307461 c -0.184225,0.126744 -0.36109,0.2693 -0.509733,0.436868 -0.179715,0.221702 -0.222099,0.512253 -0.276401,0.783267 0.242907,0.04024 0.472096,0.165811 0.722503,0.153963 0.182039,-0.0178 0.352531,-0.148623 0.416895,-0.319574 0.07993,-0.27109 -0.03214,-0.556046 -0.165055,-0.790941 -0.05475,-0.09321 -0.11796,-0.181472 -0.188209,-0.263583 z"
       d="m 98.899099,14.399996 c -0.0948,0.07112 -0.186169,0.147241 -0.271051,0.22973 -0.06283,0.06106 -0.155683,0.169668 -0.197594,0.246539 -0.08294,0.152135 -0.123595,0.324485 -0.157909,0.495756 -0.0172,0.08586 0.03965,0.167468 0.124058,0.191021 0.138523,0.03865 0.274946,0.08997 0.416104,0.110381 0.08306,0.01201 0.224804,0.0027 0.30411,-0.03373 0.07085,-0.03254 0.134753,-0.08154 0.184554,-0.141481 0.05575,-0.0671 0.101828,-0.205087 0.105941,-0.292455 0.008,-0.169024 -0.0447,-0.338683 -0.117818,-0.49398 -0.03732,-0.07927 -0.108694,-0.202506 -0.159519,-0.273912 -0.0013,-0.0018 -0.0026,-0.0037 -0.004,-0.0055 -0.05109,-0.07122 -0.156792,-0.08495 -0.226921,-0.03234 z"
       id="path22651"
       class="UnoptimicedTransforms"
       transform="matrix(0.92225932,0,0,0.99063318,-86.972727,-11.942057)" /><path
       style="fill:#000000;fill-opacity:0.601036;stroke:none;stroke-width:0;stroke-linecap:butt;stroke-linejoin:miter;stroke-opacity:1;stroke-dasharray:none"
       d="M 3.1770097,1.6907918 C 2.938761,1.7263345 2.7134755,1.8431088 2.5272,2.0072749 c -0.065728,0.057927 -0.056182,0.153175 0.011953,0.2083451 0.091612,0.07418 0.180079,0.1532713 0.2619304,0.2393625 0.060357,0.063483 0.1490857,0.1753041 0.1904424,0.2525038 0.090134,0.1682517 0.1356354,0.360219 0.1702896,0.5519622 0.015579,0.086202 0.09744,0.1473071 0.1850573,0.1481111 C 3.4213331,3.408243 3.4924209,3.345575 3.5081794,3.2593291 3.545547,3.0548182 3.5961667,2.8499026 3.6982866,2.674192 3.742249,2.5985489 3.8352308,2.4902953 3.8968758,2.4279695 3.9716512,2.3523684 4.0506716,2.281171 4.1320807,2.2144343 4.199871,2.1588619 4.2089066,2.0641493 4.1428601,2.0065424 3.9557333,1.8433272 3.731693,1.7261059 3.4933447,1.6906448 3.4067382,1.6777596 3.2636384,1.6778683 3.1770097,1.6907918 Z"
       id="path9117-0"
       inkscape:path-effect="#path-effect22678"
       inkscape:original-d="m 3.335197,1.6794841 c -0.3474999,-0.0024 -0.680121,0.1769627 -0.9213868,0.4387306 0.1775764,0.1329499 0.3494763,0.2801441 0.4921037,0.4557903 0.1817958,0.2374934 0.2341165,0.5477508 0.2825222,0.8418044 0.097316,-0.011068 0.1956942,-0.011077 0.2930101,0 C 3.5315746,3.1092392 3.5896466,2.7843442 3.7886471,2.544075 3.9290389,2.3838995 4.0901659,2.2412781 4.2571124,2.1166673 4.0132043,1.8573205 3.6837963,1.6766221 3.335197,1.6794841 Z" /><path
       class="UnoptimicedTransforms"
       id="path22669"
       d="m 98.899099,14.399996 c -0.0948,0.07112 -0.186169,0.147241 -0.271051,0.22973 -0.06283,0.06106 -0.155683,0.169668 -0.197594,0.246539 -0.08294,0.152135 -0.123595,0.324485 -0.157909,0.495756 -0.0172,0.08586 0.03965,0.167468 0.124058,0.191021 0.138523,0.03865 0.274946,0.08997 0.416104,0.110381 0.08306,0.01201 0.224804,0.0027 0.30411,-0.03373 0.07085,-0.03254 0.134753,-0.08154 0.184554,-0.141481 0.05575,-0.0671 0.101828,-0.205087 0.105941,-0.292455 0.008,-0.169024 -0.0447,-0.338683 -0.117818,-0.49398 -0.03732,-0.07927 -0.108694,-0.202506 -0.159519,-0.273912 -0.0013,-0.0018 -0.0026,-0.0037 -0.004,-0.0055 -0.05109,-0.07122 -0.156792,-0.08495 -0.226921,-0.03234 z"
       style="fill:#000000;fill-opacity:0.601036;stroke:none;stroke-width:0;stroke-linecap:butt;stroke-linejoin:miter;stroke-opacity:1;stroke-dasharray:none"
       transform="matrix(-0.92223497,0.0071992,0.00670231,0.99060702,93.534806,-12.646592)" /></g><path
     style="display:none;fill:none;stroke:#ffffff;stroke-width:0.15;stroke-linecap:butt;stroke-linejoin:miter;stroke-dasharray:none;stroke-opacity:1"
     d="m 2.255392,2.1261369 c 0,0 0.3816279,0.058009 0.7184772,0.4111498 0.3368494,0.3531412 0.4650372,0.5947858 0.4641801,0.9462086"
     id="path12560"
     sodipodi:nodetypes="czc"
     inkscape:label="pad_cut_line_test1" /><path
     style="display:none;fill:none;stroke:#ffffff;stroke-width:0.15;stroke-linecap:butt;stroke-linejoin:miter;stroke-dasharray:none;stroke-opacity:1"
     d="m 2.4600202,1.9087554 c 0,0 -0.1052835,0.3104692 0.5005058,0.6168383 0.6057894,0.306369 0.4783804,0.811107 0.4775233,0.9579016"
     id="path19284"
     sodipodi:nodetypes="czc"
     inkscape:label="pad_cut_line_test2" /><path
     style="display:none;fill:none;stroke:#ffffff;stroke-width:0.15;stroke-linecap:butt;stroke-linejoin:miter;stroke-dasharray:none;stroke-opacity:1"
     d="m 2.2781192,2.1402659 c 0,0 0.6496426,0.2847632 0.6579108,0.6696805 C 2.9443,3.1948636 2.7800679,3.5276998 2.7419591,3.6062206 m 1.6503192,-1.458438 c 0,0 -0.6516511,0.2801366 -0.6626561,0.6649854 -0.011007,0.3848486 0.1508543,0.7188442 0.1884038,0.797634"
     id="path19286"
     sodipodi:nodetypes="czc"
     inkscape:path-effect="#path-effect19294"
     inkscape:original-d="m 2.2781192,2.1402659 c 0,0 0.6496426,0.2847632 0.6579108,0.6696805 C 2.9443,3.1948636 2.7800679,3.5276998 2.7419591,3.6062206"
     class="UnoptimicedTransforms"
     inkscape:label="pad_cut_line_test3" /></svg>
